<svg width="453" height="305" viewBox="0 0 453 305" fill="none" xmlns="http://www.w3.org/2000/svg">
<path fill-rule="evenodd" clip-rule="evenodd" d="M0 -10H168V181H0V-10Z" fill="#4AF6CD"/>
<path opacity="0.0654018" d="M59.6 2.39999C78.1333 2.39999 94.0667 8.26666 107.4 20L89.2 39C84.1333 35.4 79.5333 32.8 75.4 31.2C71.4 29.4667 66.8 28.6 61.6 28.6C51.6 28.6 43.7333 32.4667 38 40.2C32.4 47.9333 29.6 59.7333 29.6 75.6C29.6 87.2 30.5333 96.4 32.4 103.2C34.2667 109.867 37.0667 114.667 40.8 117.6C44.6667 120.533 49.6 122 55.6 122C61.6 122 67.0667 120.733 72 118.2V89.6H56.2L52.6 64.2H107.8V133.4C100.6 138.2 92.4667 141.933 83.4 144.6C74.3333 147.267 65.4 148.6 56.6 148.6C13.1333 148.6 -8.6 124.2 -8.6 75.4C-8.6 60.2 -5.66667 47.1333 0.2 36.2C6.2 25.1333 14.3333 16.7333 24.6 11C34.8667 5.26666 46.5333 2.39999 59.6 2.39999ZM184.883 2.39999C205.016 2.39999 220.683 8.79999 231.883 21.6C243.083 34.4 248.683 52.3333 248.683 75.4C248.683 90.4667 246.149 103.533 241.083 114.6C236.149 125.533 228.883 133.933 219.283 139.8C209.683 145.667 198.216 148.6 184.883 148.6C164.749 148.6 149.083 142.2 137.883 129.4C126.816 116.6 121.283 98.6 121.283 75.4C121.283 60.3333 123.749 47.3333 128.683 36.4C133.749 25.4667 141.016 17.0667 150.483 11.2C160.083 5.33332 171.549 2.39999 184.883 2.39999ZM184.883 29C176.216 29 169.816 32.6 165.683 39.8C161.683 47 159.683 58.8667 159.683 75.4C159.683 91.9333 161.749 103.867 165.883 111.2C170.016 118.4 176.349 122 184.883 122C193.683 122 200.083 118.4 204.083 111.2C208.083 104 210.083 92.0667 210.083 75.4C210.083 58.8667 208.083 47 204.083 39.8C200.083 32.6 193.683 29 184.883 29ZM44.8 158.4C55.3333 158.4 64.6 159.933 72.6 163C80.7333 166.067 88 170.667 94.4 176.8L77.8 196.4C68.2 188.8 58.1333 185 47.6 185C42.1333 185 37.9333 186.067 35 188.2C32.2 190.2 30.8 193.067 30.8 196.8C30.8 199.467 31.5333 201.667 33 203.4C34.4667 205.133 36.9333 206.8 40.4 208.4C43.8667 210 49.3333 212 56.8 214.4C71.0667 218.933 81.4667 224.667 88 231.6C94.6667 238.4 98 247.867 98 260C98 268.8 95.7333 276.6 91.2 283.4C86.6667 290.067 80.0667 295.267 71.4 299C62.8667 302.733 52.8 304.6 41.2 304.6C19.0667 304.6 1 297.867 -13 284.4L5.2 264.2C16.2667 273.267 27.8 277.8 39.8 277.8C46.0667 277.8 50.9333 276.467 54.4 273.8C57.8667 271 59.6 267.333 59.6 262.8C59.6 259.6 58.9333 257 57.6 255C56.2667 252.867 53.8667 251 50.4 249.4C47.0667 247.667 42.1333 245.8 35.6 243.8C19.8667 238.867 8.8 232.933 2.4 226C-4 219.067 -7.2 210.333 -7.2 199.8C-7.2 191.533 -5 184.267 -0.6 178C3.93333 171.733 10.1333 166.933 18 163.6C26 160.133 34.9333 158.4 44.8 158.4ZM222.816 254.4C222.816 264 220.682 272.6 216.416 280.2C212.282 287.8 206.016 293.8 197.616 298.2C189.216 302.467 178.949 304.6 166.816 304.6C148.416 304.6 134.482 300.133 125.016 291.2C115.549 282.133 110.816 269.867 110.816 254.4V162H147.816V253.2C147.816 261.6 149.282 267.8 152.216 271.8C155.282 275.667 160.149 277.6 166.816 277.6C173.482 277.6 178.282 275.6 181.216 271.6C184.149 267.6 185.616 261.467 185.616 253.2V162H222.816V254.4ZM289.508 249.8H279.308V301H242.308V162H290.508C310.108 162 324.708 165.533 334.308 172.6C344.041 179.667 348.908 190.533 348.908 205.2C348.908 214 346.841 221.333 342.708 227.2C338.708 233.067 332.241 238.333 323.308 243L357.908 301H316.708L289.508 249.8ZM279.308 224.6H291.708C304.508 224.6 310.908 218.133 310.908 205.2C310.908 199.2 309.108 194.8 305.508 192C302.041 189.2 296.774 187.8 289.708 187.8H279.308V224.6ZM366.331 301V162H451.731L447.931 188.2H403.331V221.6H442.531V247.8H403.331V301H366.331Z" fill="white"/>
<path d="M60.22 145.36C60.22 142.2 60.68 139.42 61.6 137.02C62.52 134.58 63.9 132.4 65.74 130.48L71.62 135.46C69.34 138.34 68.2 141.36 68.2 144.52C68.2 146.16 68.52 147.42 69.16 148.3C69.76 149.14 70.62 149.56 71.74 149.56C72.54 149.56 73.2 149.34 73.72 148.9C74.24 148.46 74.74 147.72 75.22 146.68C75.7 145.64 76.3 144 77.02 141.76C78.38 137.48 80.1 134.36 82.18 132.4C84.22 130.4 87.06 129.4 90.7 129.4C93.34 129.4 95.68 130.08 97.72 131.44C99.72 132.8 101.28 134.78 102.4 137.38C103.52 139.94 104.08 142.96 104.08 146.44C104.08 153.08 102.06 158.5 98.02 162.7L91.96 157.24C94.68 153.92 96.04 150.46 96.04 146.86C96.04 144.98 95.64 143.52 94.84 142.48C94 141.44 92.9 140.92 91.54 140.92C90.58 140.92 89.8 141.12 89.2 141.52C88.56 141.92 88 142.64 87.52 143.68C87 144.68 86.44 146.16 85.84 148.12C84.36 152.84 82.58 156.16 80.5 158.08C78.42 160 75.8 160.96 72.64 160.96C70.16 160.96 67.98 160.3 66.1 158.98C64.22 157.62 62.78 155.76 61.78 153.4C60.74 151 60.22 148.32 60.22 145.36ZM89.02 91.9553C91.9 91.9553 94.48 92.5953 96.76 93.8753C99.04 95.1153 100.84 96.9953 102.16 99.5153C103.44 102.035 104.08 105.115 104.08 108.755C104.08 114.275 102.74 118.455 100.06 121.295C97.34 124.135 93.66 125.555 89.02 125.555H61.3V114.455H88.66C91.18 114.455 93.04 114.015 94.24 113.135C95.4 112.215 95.98 110.755 95.98 108.755C95.98 106.755 95.38 105.315 94.18 104.435C92.98 103.555 91.14 103.115 88.66 103.115H61.3V91.9553H89.02ZM87.64 71.9477V75.0077H103V86.1077H61.3V71.6477C61.3 65.7677 62.36 61.3877 64.48 58.5077C66.6 55.5877 69.86 54.1277 74.26 54.1277C76.9 54.1277 79.1 54.7477 80.86 55.9877C82.62 57.1877 84.2 59.1277 85.6 61.8077L103 51.4277V63.7877L87.64 71.9477ZM80.08 75.0077V71.2877C80.08 67.4477 78.14 65.5277 74.26 65.5277C72.46 65.5277 71.14 66.0677 70.3 67.1477C69.46 68.1877 69.04 69.7677 69.04 71.8877V75.0077H80.08ZM103 48.9006H61.3V23.2806L69.16 24.4206V37.8006H79.18V26.0406H87.04V37.8006H103V48.9006Z" fill="white"/>
<path d="M60.22 257.92C60.22 252.36 61.98 247.58 65.5 243.58L71.2 249.04C70.12 250.56 69.34 251.94 68.86 253.18C68.34 254.38 68.08 255.76 68.08 257.32C68.08 260.32 69.24 262.68 71.56 264.4C73.88 266.08 77.42 266.92 82.18 266.92C85.66 266.92 88.42 266.64 90.46 266.08C92.46 265.52 93.9 264.68 94.78 263.56C95.66 262.4 96.1 260.92 96.1 259.12C96.1 257.32 95.72 255.68 94.96 254.2H86.38V258.94L78.76 260.02V243.46H99.52C100.96 245.62 102.08 248.06 102.88 250.78C103.68 253.5 104.08 256.18 104.08 258.82C104.08 271.86 96.76 278.38 82.12 278.38C77.56 278.38 73.64 277.5 70.36 275.74C67.04 273.94 64.52 271.5 62.8 268.42C61.08 265.34 60.22 261.84 60.22 257.92ZM60.22 220.335C60.22 214.295 62.14 209.595 65.98 206.235C69.82 202.875 75.2 201.195 82.12 201.195C86.64 201.195 90.56 201.955 93.88 203.475C97.16 204.955 99.68 207.135 101.44 210.015C103.2 212.895 104.08 216.335 104.08 220.335C104.08 226.375 102.16 231.075 98.32 234.435C94.48 237.755 89.08 239.415 82.12 239.415C77.6 239.415 73.7 238.675 70.42 237.195C67.14 235.675 64.62 233.495 62.86 230.655C61.1 227.775 60.22 224.335 60.22 220.335ZM68.2 220.335C68.2 222.935 69.28 224.855 71.44 226.095C73.6 227.295 77.16 227.895 82.12 227.895C87.08 227.895 90.66 227.275 92.86 226.035C95.02 224.795 96.1 222.895 96.1 220.335C96.1 217.695 95.02 215.775 92.86 214.575C90.7 213.375 87.12 212.775 82.12 212.775C77.16 212.775 73.6 213.375 71.44 214.575C69.28 215.775 68.2 217.695 68.2 220.335Z" fill="white"/>
<rect x="83" y="191" width="20" height="1" transform="rotate(-90 83 191)" fill="white"/>
</svg>
