<svg width="34" height="32" viewBox="0 0 34 32" fill="none" xmlns="http://www.w3.org/2000/svg">
<g filter="url(#filter0_d)">
<path d="M21.3337 8.71002H4V10.8763H21.3337C24.3206 10.8763 26.75 8.44594 26.75 5.46002C26.75 2.47314 24.3196 0.0437012 21.3337 0.0437012C18.3468 0.0437012 15.9174 2.4741 15.9174 5.46002H18.0837C18.0837 3.66847 19.5421 2.21002 21.3337 2.21002C23.1252 2.21002 24.5837 3.66847 24.5837 5.46002C24.5837 7.25158 23.1252 8.71002 21.3337 8.71002Z" fill="#4AF6CD"/>
<path d="M24.5837 13.0437H4V15.21H24.5837C26.3752 15.21 27.8337 16.6685 27.8337 18.46C27.8337 20.2516 26.3752 21.71 24.5837 21.71C22.7921 21.71 21.3337 20.2516 21.3337 18.46H19.1674C19.1674 21.4469 21.5978 23.8763 24.5837 23.8763C27.5706 23.8763 30 21.4459 30 18.46C30 15.4731 27.5696 13.0437 24.5837 13.0437Z" fill="#4AF6CD"/>
</g>
<defs>
<filter id="filter0_d" x="0" y="0.0437012" width="34" height="31.8326" filterUnits="userSpaceOnUse" color-interpolation-filters="sRGB">
<feFlood flood-opacity="0" result="BackgroundImageFix"/>
<feColorMatrix in="SourceAlpha" type="matrix" values="0 0 0 0 0 0 0 0 0 0 0 0 0 0 0 0 0 0 127 0"/>
<feOffset dy="4"/>
<feGaussianBlur stdDeviation="2"/>
<feColorMatrix type="matrix" values="0 0 0 0 0 0 0 0 0 0 0 0 0 0 0 0 0 0 0.25 0"/>
<feBlend mode="normal" in2="BackgroundImageFix" result="effect1_dropShadow"/>
<feBlend mode="normal" in="SourceGraphic" in2="effect1_dropShadow" result="shape"/>
</filter>
</defs>
</svg>
